<?xml version="1.0" encoding="UTF-8" standalone="no" ?>
<!DOCTYPE svg PUBLIC "-//W3C//DTD SVG 1.1//EN" "http://www.w3.org/Graphics/SVG/1.1/DTD/svg11.dtd">
<svg xmlns="http://www.w3.org/2000/svg" xmlns:xlink="http://www.w3.org/1999/xlink" version="1.1" width="64" height="64" viewBox="0 0 64 64" xml:space="preserve">
<desc>Created with Fabric.js 4.6.0</desc>
<defs>
</defs>
<g transform="matrix(1 0 0 1 26 36)" id="OTT5rOYwvWSNaqlaRmU8_"  >
<path style="stroke: rgb(126,84,179); stroke-width: 0; stroke-dasharray: none; stroke-linecap: butt; stroke-dashoffset: 0; stroke-linejoin: miter; stroke-miterlimit: 4; fill: rgb(150,75,0); fill-rule: nonzero; opacity: 1;" vector-effect="non-scaling-stroke"  transform=" translate(-6, -16)" d="M 0 0.01989 C 0 0.008910000000000001 0.0089 0 0.01989 0 L 11.98012 0 L 11.98012 0 C 11.9911 0 12.00001 0.0089 12.00001 0.01989 L 12.00001 31.98013 L 12.00001 31.98013 C 12.00001 31.99111 11.991109999999999 32.00002 11.98012 32.00002 L 0.019890000000000185 32.00002 L 0.019890000000000185 32.00002 C 0.008910000000000185 32.00002 1.8388068845354155e-16 31.99112 1.8388068845354155e-16 31.98013 z" stroke-linecap="round" />
</g>
<g transform="matrix(0.71 -0.71 0.71 0.71 19 19)" id="EOVVhH4YYv1akwzsUmmBt"  >
<path style="stroke: rgb(126,84,179); stroke-width: 0; stroke-dasharray: none; stroke-linecap: butt; stroke-dashoffset: 0; stroke-linejoin: miter; stroke-miterlimit: 4; fill: rgb(150,75,0); fill-rule: nonzero; opacity: 1;" vector-effect="non-scaling-stroke"  transform=" translate(-6, -12)" d="M 0 0.00124 C 0 0.00055 0.00056 0 0.00124 0 L 11.99875 0 L 11.99875 0 C 11.99944 0 11.999989999999999 0.00056 11.999989999999999 0.00124 L 11.999989999999999 23.998749999999998 L 11.999989999999999 23.998749999999998 C 11.999989999999999 23.999439999999996 11.999429999999998 23.999989999999997 11.99875 23.999989999999997 L 0.0012399999999992417 23.999989999999997 L 0.0012399999999992417 23.999989999999997 C 0.0005499999999992417 23.999989999999997 -7.582909994363618e-16 23.999429999999997 -7.582909994363618e-16 23.998749999999998 z" stroke-linecap="round" />
</g>
<g transform="matrix(1 0 0 1 46 36)" id="wmfEVzXFAAvf2gqlZoKbv"  >
<path style="stroke: rgb(126,84,179); stroke-width: 0; stroke-dasharray: none; stroke-linecap: butt; stroke-dashoffset: 0; stroke-linejoin: miter; stroke-miterlimit: 4; fill: rgb(150,75,0); fill-rule: nonzero; opacity: 1;" vector-effect="non-scaling-stroke"  transform=" translate(-6, -16)" d="M 0 0.01989 C 0 0.008910000000000001 0.0089 0 0.01989 0 L 11.98012 0 L 11.98012 0 C 11.9911 0 12.00001 0.0089 12.00001 0.01989 L 12.00001 31.98013 L 12.00001 31.98013 C 12.00001 31.99111 11.991109999999999 32.00002 11.98012 32.00002 L 0.019890000000000185 32.00002 L 0.019890000000000185 32.00002 C 0.008910000000000185 32.00002 1.8388068845354155e-16 31.99112 1.8388068845354155e-16 31.98013 z" stroke-linecap="round" />
</g>
<g transform="matrix(-1 0 0 1 36 26)" id="pEPVA5tIVmIFxa7INB_a9"  >
<path style="stroke: rgb(126,84,179); stroke-width: 0; stroke-dasharray: none; stroke-linecap: butt; stroke-dashoffset: 0; stroke-linejoin: miter; stroke-miterlimit: 4; fill: rgb(150,75,0); fill-rule: nonzero; opacity: 1;" vector-effect="non-scaling-stroke"  transform=" translate(0, 0)" d="M -16 -5.99503 C -16 -5.99778 -15.99777 -6 -15.99503 -6 L 15.99503 -6 L 15.99503 -6 C 15.99778 -6 16 -5.99777 16 -5.99503 L 16 5.99503 L 16 5.99503 C 16 5.99778 15.99777 6 15.99503 6 L -15.99503 6 L -15.99503 6 C -15.99778 6 -16 5.99777 -16 5.99503 z" stroke-linecap="round" />
</g>
</svg>